<svg width="17" height="17" viewBox="0 0 17 17" fill="none" xmlns="http://www.w3.org/2000/svg">
<path d="M7.12663 14C8.60577 13.9997 10.0423 13.5045 11.2075 12.5933L14.8708 16.2567L16.0491 15.0783L12.3858 11.415C13.2975 10.2497 13.7929 8.81285 13.7933 7.33332C13.7933 3.65749 10.8025 0.666656 7.12663 0.666656C3.45079 0.666656 0.459961 3.65749 0.459961 7.33332C0.459961 11.0092 3.45079 14 7.12663 14ZM7.12663 2.33332C9.88413 2.33332 12.1266 4.57582 12.1266 7.33332C12.1266 10.0908 9.88413 12.3333 7.12663 12.3333C4.36913 12.3333 2.12663 10.0908 2.12663 7.33332C2.12663 4.57582 4.36913 2.33332 7.12663 2.33332Z" fill="#A6A3B1"/>
</svg>
