<svg width="116" height="36" viewBox="0 0 116 36" fill="none" xmlns="http://www.w3.org/2000/svg">
<g opacity="0.2">
<g clip-path="url(#clip0_49_1205)">
<path fill-rule="evenodd" clip-rule="evenodd" d="M10.0342 3.26038H19.9653H22.448C26.5616 3.26038 29.8963 6.59508 29.8963 10.7087H29.8965C29.8965 14.6768 26.6826 17.8943 22.7158 17.9001C26.6826 17.9058 29.8965 21.1234 29.8965 25.0915H19.9656V17.9001V17.9001V10.7087H19.9653H10.0345V17.9001H19.9652V25.0915H10.0342V17.9001H0.103516V10.7087H10.0342V3.26038ZM10.0345 25.0916H0.103516V33.3104H10.0345V25.0916ZM29.8966 25.0916H19.9656V33.3104H29.8966V25.0916Z" fill="#EDEAF7"/>
</g>
<path d="M40.182 29V12.7492H42.5942V15.2038H42.7635C43.0597 14.3997 43.5958 13.7473 44.3716 13.2465C45.1475 12.7457 46.0221 12.4953 46.9955 12.4953C47.1789 12.4953 47.4081 12.4988 47.6832 12.5059C47.9582 12.5129 48.1663 12.5235 48.3074 12.5376V15.0768C48.2227 15.0556 48.0288 15.0239 47.7255 14.9816C47.4293 14.9322 47.1154 14.9075 46.7839 14.9075C45.9939 14.9075 45.2886 15.0733 44.6679 15.4048C44.0543 15.7292 43.5676 16.1806 43.2079 16.759C42.8552 17.3303 42.6789 17.9828 42.6789 18.7163V29H40.182ZM57.586 29.3386C56.0202 29.3386 54.6695 28.9929 53.5339 28.3017C52.4053 27.6034 51.5343 26.6301 50.9206 25.3817C50.314 24.1262 50.0108 22.6661 50.0108 21.0016C50.0108 19.337 50.314 17.8699 50.9206 16.6003C51.5343 15.3237 52.3877 14.3292 53.481 13.6168C54.5813 12.8973 55.865 12.5376 57.3321 12.5376C58.1785 12.5376 59.0143 12.6787 59.8395 12.9608C60.6648 13.2429 61.4159 13.7014 62.093 14.3362C62.7702 14.964 63.3097 15.7962 63.7118 16.8331C64.1138 17.8699 64.3148 19.1466 64.3148 20.663V21.721H51.7882V19.5627H61.7756C61.7756 18.6458 61.5923 17.8276 61.2255 17.1082C60.8658 16.3887 60.3509 15.8209 59.6808 15.4048C59.0178 14.9886 58.2349 14.7806 57.3321 14.7806C56.3376 14.7806 55.4771 15.0274 54.7506 15.5212C54.0311 16.0078 53.4774 16.6426 53.0895 17.4255C52.7016 18.2085 52.5076 19.0478 52.5076 19.9436V21.3824C52.5076 22.6097 52.7192 23.6501 53.1424 24.5035C53.5727 25.3499 54.1687 25.9953 54.9304 26.4397C55.6922 26.877 56.5774 27.0956 57.586 27.0956C58.2419 27.0956 58.8344 27.0039 59.3634 26.8205C59.8995 26.6301 60.3615 26.348 60.7494 25.9741C61.1373 25.5933 61.4371 25.1207 61.6487 24.5564L64.0609 25.2335C63.807 26.0517 63.3803 26.7712 62.7807 27.3918C62.1812 28.0055 61.4406 28.4851 60.559 28.8307C59.6773 29.1693 58.6863 29.3386 57.586 29.3386ZM74.9265 29.3386C73.3607 29.3386 72.01 28.9929 70.8744 28.3017C69.7459 27.6034 68.8748 26.6301 68.2611 25.3817C67.6546 24.1262 67.3513 22.6661 67.3513 21.0016C67.3513 19.337 67.6546 17.8699 68.2611 16.6003C68.8748 15.3237 69.7282 14.3292 70.8215 13.6168C71.9218 12.8973 73.2055 12.5376 74.6726 12.5376C75.519 12.5376 76.3548 12.6787 77.18 12.9608C78.0053 13.2429 78.7564 13.7014 79.4336 14.3362C80.1107 14.964 80.6503 15.7962 81.0523 16.8331C81.4543 17.8699 81.6553 19.1466 81.6553 20.663V21.721H69.1287V19.5627H79.1162C79.1162 18.6458 78.9328 17.8276 78.566 17.1082C78.2063 16.3887 77.6914 15.8209 77.0213 15.4048C76.3583 14.9886 75.5754 14.7806 74.6726 14.7806C73.6781 14.7806 72.8176 15.0274 72.0911 15.5212C71.3716 16.0078 70.818 16.6426 70.43 17.4255C70.0421 18.2085 69.8481 19.0478 69.8481 19.9436V21.3824C69.8481 22.6097 70.0597 23.6501 70.4829 24.5035C70.9132 25.3499 71.5092 25.9953 72.2709 26.4397C73.0327 26.877 73.9179 27.0956 74.9265 27.0956C75.5825 27.0956 76.1749 27.0039 76.7039 26.8205C77.24 26.6301 77.702 26.348 78.0899 25.9741C78.4778 25.5933 78.7776 25.1207 78.9892 24.5564L81.4014 25.2335C81.1475 26.0517 80.7208 26.7712 80.1213 27.3918C79.5217 28.0055 78.7811 28.4851 77.8995 28.8307C77.0178 29.1693 76.0268 29.3386 74.9265 29.3386ZM87.9504 7.33229V29H85.4535V7.33229H87.9504ZM92.5236 29V12.7492H95.0205V29H92.5236ZM93.7932 10.0408C93.3065 10.0408 92.8868 9.875 92.5342 9.5435C92.1886 9.21199 92.0158 8.81348 92.0158 8.34796C92.0158 7.88245 92.1886 7.48393 92.5342 7.15243C92.8868 6.82093 93.3065 6.65517 93.7932 6.65517C94.2799 6.65517 94.696 6.82093 95.0416 7.15243C95.3943 7.48393 95.5706 7.88245 95.5706 8.34796C95.5706 8.81348 95.3943 9.21199 95.0416 9.5435C94.696 9.875 94.2799 10.0408 93.7932 10.0408ZM106.196 29.3386C104.728 29.3386 103.441 28.9894 102.334 28.2911C101.234 27.5929 100.373 26.616 99.7523 25.3605C99.1387 24.105 98.8319 22.6379 98.8319 20.9592C98.8319 19.2665 99.1387 17.7888 99.7523 16.5263C100.373 15.2637 101.234 14.2833 102.334 13.585C103.441 12.8868 104.728 12.5376 106.196 12.5376C107.663 12.5376 108.946 12.8868 110.047 13.585C111.154 14.2833 112.014 15.2637 112.628 16.5263C113.249 17.7888 113.559 19.2665 113.559 20.9592C113.559 22.6379 113.249 24.105 112.628 25.3605C112.014 26.616 111.154 27.5929 110.047 28.2911C108.946 28.9894 107.663 29.3386 106.196 29.3386ZM106.196 27.0956C107.31 27.0956 108.227 26.81 108.946 26.2386C109.666 25.6673 110.198 24.9161 110.544 23.9851C110.889 23.0541 111.062 22.0455 111.062 20.9592C111.062 19.873 110.889 18.8609 110.544 17.9228C110.198 16.9847 109.666 16.2265 108.946 15.6481C108.227 15.0697 107.31 14.7806 106.196 14.7806C105.081 14.7806 104.164 15.0697 103.445 15.6481C102.725 16.2265 102.193 16.9847 101.847 17.9228C101.502 18.8609 101.329 19.873 101.329 20.9592C101.329 22.0455 101.502 23.0541 101.847 23.9851C102.193 24.9161 102.725 25.6673 103.445 26.2386C104.164 26.81 105.081 27.0956 106.196 27.0956Z" fill="#EDEAF7"/>
</g>
<defs>
<clipPath id="clip0_49_1205">
<rect width="29.7931" height="29.7931" fill="white" transform="translate(0.103516 3.10345)"/>
</clipPath>
</defs>
</svg>
