<svg width="116" height="36" viewBox="0 0 116 36" fill="none" xmlns="http://www.w3.org/2000/svg">
<g clip-path="url(#clip0_49_1197)">
<path fill-rule="evenodd" clip-rule="evenodd" d="M9.93073 3.26041H19.8618H22.3445C26.4581 3.26041 29.7928 6.59511 29.7928 10.7087H29.793C29.793 14.6768 26.5791 17.8943 22.6123 17.9001C26.5791 17.9059 29.793 21.1234 29.793 25.0915H19.8621V17.9001V17.9001V10.7087H19.8618H9.93094V17.9001H19.8617V25.0915H9.93073V17.9001H0V10.7087H9.93073V3.26041ZM9.93103 25.0916H0V33.3104H9.93103V25.0916ZM19.8621 25.0916V33.3104H29.7931V25.0916H19.8621Z" fill="url(#paint0_linear_49_1197)"/>
</g>
<path d="M40.0785 29V12.7492H42.4907V15.2038H42.66C42.9562 14.3997 43.4923 13.7473 44.2681 13.2465C45.044 12.7457 45.9186 12.4953 46.892 12.4953C47.0753 12.4953 47.3046 12.4988 47.5797 12.5059C47.8547 12.5129 48.0628 12.5235 48.2039 12.5376V15.0768C48.1192 15.0556 47.9253 15.0239 47.622 14.9816C47.3257 14.9322 47.0119 14.9075 46.6804 14.9075C45.8904 14.9075 45.1851 15.0733 44.5644 15.4048C43.9507 15.7292 43.4641 16.1806 43.1043 16.759C42.7517 17.3303 42.5753 17.9828 42.5753 18.7163V29H40.0785ZM57.4825 29.3386C55.9166 29.3386 54.5659 28.9929 53.4304 28.3017C52.3018 27.6034 51.4308 26.6301 50.8171 25.3817C50.2105 24.1262 49.9072 22.6661 49.9072 21.0016C49.9072 19.337 50.2105 17.8699 50.8171 16.6003C51.4308 15.3237 52.2842 14.3292 53.3775 13.6168C54.4778 12.8973 55.7615 12.5376 57.2286 12.5376C58.075 12.5376 58.9108 12.6787 59.736 12.9608C60.5612 13.2429 61.3124 13.7014 61.9895 14.3362C62.6666 14.964 63.2062 15.7962 63.6083 16.8331C64.0103 17.8699 64.2113 19.1466 64.2113 20.663V21.721H51.6847V19.5627H61.6721C61.6721 18.6458 61.4887 17.8276 61.122 17.1082C60.7623 16.3887 60.2474 15.8209 59.5773 15.4048C58.9143 14.9886 58.1314 14.7806 57.2286 14.7806C56.234 14.7806 55.3735 15.0274 54.6471 15.5212C53.9276 16.0078 53.3739 16.6426 52.986 17.4255C52.5981 18.2085 52.4041 19.0478 52.4041 19.9436V21.3824C52.4041 22.6097 52.6157 23.6501 53.0389 24.5035C53.4692 25.3499 54.0652 25.9953 54.8269 26.4397C55.5887 26.877 56.4739 27.0956 57.4825 27.0956C58.1384 27.0956 58.7309 27.0039 59.2599 26.8205C59.796 26.6301 60.2579 26.348 60.6459 25.9741C61.0338 25.5933 61.3336 25.1207 61.5452 24.5564L63.9574 25.2335C63.7035 26.0517 63.2768 26.7712 62.6772 27.3918C62.0777 28.0055 61.3371 28.4851 60.4554 28.8307C59.5738 29.1693 58.5828 29.3386 57.4825 29.3386ZM74.823 29.3386C73.2572 29.3386 71.9065 28.9929 70.7709 28.3017C69.6424 27.6034 68.7713 26.6301 68.1576 25.3817C67.551 24.1262 67.2478 22.6661 67.2478 21.0016C67.2478 19.337 67.551 17.8699 68.1576 16.6003C68.7713 15.3237 69.6247 14.3292 70.718 13.6168C71.8183 12.8973 73.102 12.5376 74.5691 12.5376C75.4155 12.5376 76.2513 12.6787 77.0765 12.9608C77.9018 13.2429 78.6529 13.7014 79.33 14.3362C80.0072 14.964 80.5467 15.7962 80.9488 16.8331C81.3508 17.8699 81.5518 19.1466 81.5518 20.663V21.721H69.0252V19.5627H79.0126C79.0126 18.6458 78.8293 17.8276 78.4625 17.1082C78.1028 16.3887 77.5879 15.8209 76.9178 15.4048C76.2548 14.9886 75.4719 14.7806 74.5691 14.7806C73.5746 14.7806 72.7141 15.0274 71.9876 15.5212C71.2681 16.0078 70.7145 16.6426 70.3265 17.4255C69.9386 18.2085 69.7446 19.0478 69.7446 19.9436V21.3824C69.7446 22.6097 69.9562 23.6501 70.3794 24.5035C70.8097 25.3499 71.4057 25.9953 72.1674 26.4397C72.9292 26.877 73.8144 27.0956 74.823 27.0956C75.4789 27.0956 76.0714 27.0039 76.6004 26.8205C77.1365 26.6301 77.5985 26.348 77.9864 25.9741C78.3743 25.5933 78.6741 25.1207 78.8857 24.5564L81.2979 25.2335C81.044 26.0517 80.6173 26.7712 80.0177 27.3918C79.4182 28.0055 78.6776 28.4851 77.796 28.8307C76.9143 29.1693 75.9233 29.3386 74.823 29.3386ZM87.8469 7.33229V29H85.35V7.33229H87.8469ZM92.4201 29V12.7492H94.9169V29H92.4201ZM93.6897 10.0408C93.203 10.0408 92.7833 9.875 92.4307 9.5435C92.085 9.21199 91.9122 8.81348 91.9122 8.34796C91.9122 7.88245 92.085 7.48393 92.4307 7.15243C92.7833 6.82093 93.203 6.65517 93.6897 6.65517C94.1763 6.65517 94.5925 6.82093 94.9381 7.15243C95.2908 7.48393 95.4671 7.88245 95.4671 8.34796C95.4671 8.81348 95.2908 9.21199 94.9381 9.5435C94.5925 9.875 94.1763 10.0408 93.6897 10.0408ZM106.092 29.3386C104.625 29.3386 103.338 28.9894 102.23 28.2911C101.13 27.5929 100.27 26.616 99.6488 25.3605C99.0352 24.105 98.7284 22.6379 98.7284 20.9592C98.7284 19.2665 99.0352 17.7888 99.6488 16.5263C100.27 15.2637 101.13 14.2833 102.23 13.585C103.338 12.8868 104.625 12.5376 106.092 12.5376C107.559 12.5376 108.843 12.8868 109.943 13.585C111.05 14.2833 111.911 15.2637 112.525 16.5263C113.145 17.7888 113.456 19.2665 113.456 20.9592C113.456 22.6379 113.145 24.105 112.525 25.3605C111.911 26.616 111.05 27.5929 109.943 28.2911C108.843 28.9894 107.559 29.3386 106.092 29.3386ZM106.092 27.0956C107.206 27.0956 108.123 26.81 108.843 26.2386C109.562 25.6673 110.095 24.9161 110.44 23.9851C110.786 23.0541 110.959 22.0455 110.959 20.9592C110.959 19.873 110.786 18.8609 110.44 17.9228C110.095 16.9847 109.562 16.2265 108.843 15.6481C108.123 15.0697 107.206 14.7806 106.092 14.7806C104.978 14.7806 104.061 15.0697 103.341 15.6481C102.622 16.2265 102.089 16.9847 101.744 17.9228C101.398 18.8609 101.225 19.873 101.225 20.9592C101.225 22.0455 101.398 23.0541 101.744 23.9851C102.089 24.9161 102.622 25.6673 103.341 26.2386C104.061 26.81 104.978 27.0956 106.092 27.0956Z" fill="#EDEAF7"/>
<defs>
<linearGradient id="paint0_linear_49_1197" x1="14.8966" y1="3.26041" x2="14.8966" y2="33.3104" gradientUnits="userSpaceOnUse">
<stop stop-color="#825BFF"/>
<stop offset="1" stop-color="#FFE1FF"/>
</linearGradient>
<clipPath id="clip0_49_1197">
<rect width="29.7931" height="29.7931" fill="white" transform="translate(0 3.10345)"/>
</clipPath>
</defs>
</svg>
